<?xml version="1.0" encoding="UTF-8" standalone="no"?>
<svg 
  version="1.1" 
  xmlns="http://www.w3.org/2000/svg" 
  xmlns:xlink="http://www.w3.org/1999/xlink" 
  xmlns:svg="http://www.w3.org/2000/svg"
  xmlns:rdf="http://www.w3.org/1999/02/22-rdf-syntax-ns#"
  xmlns:cc="http://creativecommons.org/ns#"
  xmlns:dc="http://purl.org/dc/elements/1.1/"
  viewBox="0 0 768 768"
  width="768"
  height="768"
>
<style>svg {background-color: white; }</style>"
<metadata id="metadata1">
Created by https://svgstud.io and licensed under CC-BY-SA 4.0 license. Please attribute https://svgstud.io
</metadata>
<metadata id="prompt">
logo!!, monochrome, Design a modern, minimalist logo for a luxury skincare brand called "Mucilux". The logo features a sleek droplet shape pointing downward, symbolizing purity and hydration. The droplet is filled with a gradient from light teal (#00A8A8) at the top to dark teal (#008080) at the bottom to add depth. Inside the droplet, there is a delicate gold (#FFD700) spiral starting from the center and gently expanding outward, representing snail mucin in a subtle, elegant way. Add subtle highlights and shading to give the droplet a slight 3D effect while keeping the overall design flat and in 2D. The style should be simple, clean, and convey a sense of natural luxury and sophistication., plain background
</metadata>
<metadata id="version">
7
</metadata>
<metadata id="metadata2">
<rdf:RDF>
<cc:Work
    rdf:about="">
    <cc:license
    rdf:resource="http://creativecommons.org/licenses/by-sa/4.0/" />
    <dc:creator>
        <cc:Agent>
            <dc:title>https://svgstud.io</dc:title>
        </cc:Agent>
    </dc:creator>
</cc:Work>
<cc:License
    rdf:about="http://creativecommons.org/licenses/by-sa/4.0/">
    <cc:permits
    rdf:resource="http://creativecommons.org/ns#Reproduction" />
    <cc:permits
    rdf:resource="http://creativecommons.org/ns#Distribution" />
    <cc:requires
    rdf:resource="http://creativecommons.org/ns#Notice" />
    <cc:requires
    rdf:resource="http://creativecommons.org/ns#Attribution" />
    <cc:permits
    rdf:resource="http://creativecommons.org/ns#DerivativeWorks" />
    <cc:requires
    rdf:resource="http://creativecommons.org/ns#ShareAlike" />
</cc:License>
</rdf:RDF>
</metadata>
<metadata id="uid">
6af7169adee6d835421c3d29a6f9b8c0c3595f8a301a16b76a9e921b08263a1c
</metadata>
<path stroke="none" fill="black" fill-rule="evenodd" d="M390.50,560.49C381.15,560.71 369.90,560.45 365.50,559.91C361.10,559.37 352.47,557.81 346.33,556.43C340.19,555.06 332.03,552.87 328.21,551.57C324.38,550.27 316.36,547.14 310.38,544.61C304.39,542.08 295.82,537.64 291.33,534.75C286.83,531.86 279.49,526.36 275.01,522.53C270.53,518.69 264.37,512.46 261.31,508.68C258.26,504.90 253.97,498.87 251.79,495.27C249.60,491.67 246.92,486.65 245.83,484.11C244.74,481.58 242.95,475.70 241.84,471.05C240.60,465.85 239.79,458.75 239.71,452.55C239.65,447.02 240.18,440.14 240.90,437.25C241.61,434.36 242.54,432.00 242.96,432.00C243.37,432.00 244.02,436.06 244.39,441.02C244.77,445.98 246.18,454.42 247.54,459.77C248.89,465.12 251.74,473.10 253.86,477.50C255.98,481.90 259.80,488.26 262.35,491.63C264.90,495.00 269.91,500.49 273.48,503.84C277.05,507.18 282.57,511.67 285.74,513.81C288.91,515.96 293.98,519.10 297.00,520.78C300.02,522.47 307.14,525.45 312.81,527.41C318.48,529.37 329.28,532.13 336.81,533.54C345.55,535.18 355.94,536.32 365.56,536.70C375.11,537.07 383.69,536.85 389.06,536.09C393.70,535.43 400.88,533.97 405.00,532.84C409.12,531.72 417.40,528.80 423.39,526.36C429.38,523.92 437.31,520.15 441.01,517.99C444.72,515.83 451.29,511.42 455.62,508.20C459.96,504.97 467.56,498.07 472.53,492.86C477.50,487.65 484.84,478.46 488.86,472.44C492.87,466.42 499.70,454.30 504.02,445.50C508.35,436.70 513.99,423.65 516.57,416.50C519.14,409.35 522.74,397.51 524.57,390.19C526.39,382.87 528.59,371.15 529.44,364.15C530.30,357.15 530.97,344.91 530.93,336.96C530.89,329.01 530.51,321.62 530.09,320.54C529.59,319.26 528.74,323.03 527.61,331.54C526.66,338.67 524.96,349.00 523.84,354.50C522.71,360.00 520.09,370.12 518.03,377.00C515.96,383.88 512.23,394.45 509.74,400.50C507.25,406.55 502.43,417.33 499.04,424.45C495.65,431.57 491.25,440.12 489.26,443.45C487.27,446.78 483.60,452.65 481.10,456.50C478.59,460.35 474.24,466.43 471.42,470.00C468.61,473.57 461.14,481.45 454.83,487.50C448.53,493.55 439.12,501.52 433.93,505.22C428.75,508.91 419.99,514.17 414.48,516.90C408.97,519.63 401.09,522.98 396.98,524.35C392.87,525.73 386.10,527.54 381.95,528.39C377.80,529.24 369.20,530.42 362.84,531.01C354.91,531.75 349.30,531.77 345.00,531.08C341.56,530.52 338.52,529.85 338.25,529.58C337.98,529.32 338.83,528.87 340.13,528.60C341.43,528.33 345.20,527.81 348.50,527.45C351.80,527.09 358.64,525.75 363.70,524.47C368.76,523.19 377.82,520.06 383.83,517.53C389.84,514.99 399.65,510.12 405.63,506.70C411.61,503.29 420.32,497.59 425.00,494.04C429.68,490.50 436.23,484.88 439.56,481.55C442.89,478.22 449.01,471.23 453.14,466.00C457.28,460.77 462.99,453.24 465.82,449.26C468.66,445.28 474.43,436.28 478.64,429.26C482.85,422.24 489.62,409.75 493.67,401.50C497.72,393.25 503.24,380.88 505.92,374.00C508.60,367.12 512.15,356.77 513.82,351.00C515.48,345.23 517.77,335.83 518.92,330.11C520.06,324.40 521.54,312.36 522.19,303.35C522.84,294.35 523.72,287.32 524.14,287.74C524.56,288.16 526.09,294.13 527.54,301.00C528.99,307.88 531.46,316.88 533.04,321.00C534.61,325.12 537.24,332.77 538.89,338.00C540.53,343.23 542.54,350.20 543.35,353.50C544.16,356.80 545.55,364.00 546.43,369.50C547.30,375.00 548.47,386.70 549.01,395.50C549.55,404.30 550.01,412.62 550.03,414.00C550.05,415.90 550.27,416.14 550.93,415.00C551.40,414.18 552.50,409.90 553.36,405.50C554.22,401.10 555.46,392.77 556.10,387.00C556.81,380.65 557.05,370.17 556.70,360.50C556.33,350.23 555.22,339.30 553.58,329.99C552.18,322.01 549.50,310.76 547.63,304.99C545.75,299.22 542.43,290.36 540.25,285.31C538.06,280.26 533.91,271.86 531.03,266.64C528.14,261.43 522.13,252.29 517.67,246.33C513.21,240.37 505.27,231.06 500.03,225.64C494.79,220.21 487.12,213.05 483.00,209.71C478.88,206.37 471.45,200.99 466.50,197.76C461.55,194.52 452.55,189.43 446.50,186.46C440.45,183.49 431.45,179.75 426.50,178.14C421.55,176.54 413.68,174.39 409.00,173.37C402.40,171.93 396.59,171.53 383.00,171.60C366.74,171.68 364.65,171.90 353.50,174.83C345.27,176.98 337.73,179.85 329.50,183.96C322.90,187.25 313.68,192.83 309.00,196.35C304.32,199.88 296.56,206.85 291.75,211.85C286.94,216.84 281.27,223.60 279.16,226.88C277.04,230.15 274.51,235.68 273.54,239.16C272.57,242.65 270.89,247.23 269.81,249.35C268.74,251.47 266.10,255.11 263.94,257.45C261.79,259.78 259.36,263.28 258.55,265.22C257.74,267.16 256.59,271.79 256.00,275.50C255.22,280.37 255.23,285.62 256.02,294.25C256.63,300.85 258.17,310.35 259.44,315.37C260.72,320.39 263.66,329.45 265.99,335.50C268.32,341.55 271.96,351.32 274.08,357.21C276.20,363.11 278.23,370.82 278.60,374.35C279.01,378.36 278.78,382.79 277.99,386.14C277.30,389.09 275.89,393.16 274.87,395.20C273.85,397.23 270.65,401.31 267.76,404.25C263.69,408.39 261.17,410.02 256.64,411.43C252.47,412.73 249.05,413.10 244.83,412.72C241.43,412.41 236.61,411.06 233.56,409.58C230.64,408.14 225.97,404.73 223.19,402.00C220.40,399.25 216.78,394.22 215.09,390.76C213.42,387.32 211.57,381.42 210.99,377.65C210.24,372.78 210.25,368.51 211.02,362.84C211.62,358.45 213.71,350.28 215.66,344.68C217.60,339.08 222.71,327.07 227.01,318.00C231.30,308.93 238.90,293.48 243.90,283.69C248.90,273.89 254.35,263.89 256.02,261.47C258.98,257.17 259.02,256.92 258.03,250.66C257.46,247.13 257.28,242.73 257.62,240.87C257.96,239.02 259.37,234.23 260.76,230.22C262.14,226.22 263.69,222.69 264.19,222.39C264.68,222.08 265.81,223.66 266.70,225.91C267.58,228.16 268.63,230.00 269.03,230.00C269.43,230.00 270.36,228.55 271.09,226.78C271.83,225.01 275.02,220.11 278.20,215.90C281.38,211.68 287.68,204.75 292.21,200.49C296.73,196.23 303.56,190.55 307.37,187.87C311.19,185.19 319.30,180.55 325.41,177.55C331.51,174.55 340.10,170.94 344.50,169.53C348.90,168.13 356.32,166.23 361.00,165.31C366.73,164.19 374.38,163.67 384.50,163.70C395.76,163.74 402.03,164.29 409.66,165.88C415.25,167.05 424.03,169.37 429.16,171.04C434.30,172.71 444.12,176.79 451.00,180.10C457.88,183.42 467.77,188.98 473.00,192.47C478.23,195.96 486.82,202.43 492.11,206.86C497.39,211.28 504.77,218.18 508.49,222.20C512.21,226.21 518.07,233.10 521.50,237.50C524.92,241.90 529.98,248.88 532.74,253.00C535.49,257.12 540.11,265.23 543.01,271.00C545.90,276.77 550.27,286.68 552.72,293.00C555.17,299.32 558.67,310.35 560.51,317.50C562.35,324.65 564.54,335.23 565.38,341.00C566.23,346.77 567.21,357.12 567.57,364.00C567.94,370.94 567.74,382.07 567.14,389.02C566.54,395.91 565.11,406.26 563.97,412.02C562.82,417.78 560.14,427.75 558.01,434.16C555.87,440.58 551.89,450.57 549.15,456.38C546.41,462.18 541.60,470.88 538.45,475.71C535.30,480.55 530.72,487.11 528.26,490.30C525.81,493.49 519.95,500.15 515.25,505.09C510.54,510.04 503.28,516.93 499.10,520.41C494.92,523.89 487.58,529.29 482.79,532.41C477.99,535.53 468.54,540.72 461.79,543.96C455.03,547.19 445.23,551.24 440.01,552.94C434.79,554.65 425.34,556.95 419.01,558.06C411.65,559.36 401.37,560.23 390.50,560.49zM386.50,494.48C376.60,494.70 365.57,494.49 362.00,494.02C358.43,493.55 353.32,492.67 350.66,492.06C348.00,491.45 344.16,490.10 342.11,489.06C340.07,488.01 336.98,485.71 335.24,483.94C333.51,482.17 331.40,479.25 330.55,477.46C329.28,474.78 329.00,469.66 329.01,448.85C329.01,434.91 329.48,396.05 330.04,362.50C330.60,328.95 331.49,299.90 332.01,297.95C332.54,296.00 334.21,293.25 335.73,291.84C337.26,290.42 341.54,287.59 345.25,285.55C352.00,281.83 352.00,281.83 352.00,265.50C352.00,249.18 352.00,249.18 355.25,246.45C358.47,243.75 358.51,243.61 359.00,233.11C359.41,224.32 359.87,221.98 361.68,219.45C362.87,217.77 366.08,215.19 368.80,213.71C371.89,212.02 376.69,210.60 381.62,209.90C385.95,209.28 395.95,208.72 403.83,208.64C417.77,208.50 418.22,208.57 420.08,210.86C421.37,212.45 422.00,214.78 422.00,217.96C422.00,221.37 421.46,223.18 420.06,224.45C418.99,225.41 415.73,226.50 412.81,226.85C407.50,227.50 407.50,227.50 407.00,235.85C406.50,244.21 406.50,244.21 410.50,246.89C414.50,249.57 414.50,249.57 415.11,264.65C415.44,272.95 416.04,280.25 416.43,280.89C416.82,281.52 419.47,283.20 422.32,284.63C425.17,286.06 428.92,288.29 430.66,289.59C432.43,290.92 434.51,293.85 435.39,296.23C436.66,299.70 437.15,309.24 438.00,347.00C438.57,372.57 439.33,410.82 439.67,432.00C440.29,469.66 440.26,470.59 438.22,474.57C437.08,476.81 434.33,480.28 432.11,482.28C429.89,484.29 425.75,487.11 422.92,488.54C420.08,489.98 414.78,491.81 411.13,492.62C407.24,493.47 397.05,494.24 386.50,494.48zM386.00,485.43C392.88,485.19 401.33,484.53 404.79,483.97C408.24,483.41 413.64,481.99 416.79,480.82C420.29,479.52 424.14,477.07 426.75,474.48C431.00,470.26 431.00,470.26 431.00,442.88C431.00,427.82 430.55,391.20 430.00,361.50C429.45,331.80 428.75,305.59 428.44,303.26C428.13,300.93 427.20,298.34 426.37,297.51C425.08,296.22 419.60,296.00 388.37,296.00C364.93,296.00 350.31,296.40 347.47,297.11C345.05,297.72 342.63,298.74 342.10,299.37C341.54,300.05 340.71,328.46 340.07,368.51C339.48,405.91 338.91,444.15 338.80,453.50C338.63,467.93 338.87,470.99 340.33,473.75C341.28,475.54 343.73,478.10 345.78,479.43C347.83,480.76 351.43,482.36 353.80,482.98C356.16,483.60 361.56,484.50 365.80,484.99C370.03,485.48 379.12,485.68 386.00,485.43zM392.50,477.39C385.90,477.65 376.81,477.48 372.30,477.00C367.78,476.53 361.26,475.43 357.80,474.56C352.96,473.35 350.71,472.13 348.09,469.33C344.68,465.68 344.68,465.68 345.45,413.09C345.87,384.17 346.50,348.27 346.85,333.33C347.21,318.39 347.88,305.79 348.34,305.33C348.81,304.87 357.11,304.65 366.79,304.83C376.48,305.01 392.44,304.62 402.27,303.95C415.03,303.09 420.45,303.05 421.22,303.82C421.85,304.45 422.43,310.48 422.62,318.20C422.80,325.51 423.47,361.44 424.11,398.03C425.19,459.42 425.15,464.80 423.62,467.76C422.71,469.52 420.72,471.61 419.19,472.40C417.66,473.19 413.73,474.53 410.46,475.38C407.18,476.23 399.10,477.13 392.50,477.39zM385.50,472.56C392.53,472.31 399.69,471.47 402.79,470.52C406.74,469.31 408.33,468.25 409.04,466.38C409.62,464.87 410.00,433.98 410.00,388.47C410.00,313.07 410.00,313.07 385.25,313.13C371.64,313.17 359.71,313.41 358.75,313.66C357.10,314.11 357.00,318.61 357.00,390.41C357.00,463.63 357.07,466.76 358.87,468.38C359.90,469.31 363.61,470.73 367.12,471.53C371.52,472.53 377.22,472.85 385.50,472.56zM250.30,400.99C253.49,401.00 257.31,400.37 258.80,399.59C260.28,398.81 262.71,396.90 264.20,395.34C265.68,393.78 267.59,390.83 268.45,388.78C269.30,386.74 269.99,382.69 269.98,379.78C269.98,376.88 269.58,373.88 269.09,373.12C268.48,372.15 268.01,372.96 267.52,375.87C267.14,378.14 266.01,381.01 265.00,382.24C263.18,384.49 263.18,384.49 262.58,380.50C262.25,378.30 259.91,366.38 257.37,354.00C254.84,341.62 252.10,324.98 251.30,317.00C250.49,309.02 249.63,301.47 249.39,300.21C249.14,298.95 248.52,298.18 248.01,298.49C247.50,298.81 243.69,309.52 239.55,322.28C235.41,335.05 231.08,349.10 229.93,353.50C228.58,358.67 227.82,364.68 227.80,370.50C227.78,376.48 228.32,381.01 229.43,384.00C230.34,386.48 232.26,390.21 233.71,392.29C235.15,394.38 238.17,397.19 240.41,398.53C243.49,400.37 245.94,400.98 250.30,400.99zM386.00,288.71C396.18,288.74 405.78,288.48 407.34,288.13C410.17,287.50 410.17,287.50 407.82,285.30C405.56,283.18 404.64,283.09 384.18,282.94C365.13,282.80 362.69,282.97 360.95,284.55C359.88,285.52 359.00,286.66 359.00,287.10C359.00,287.53 360.91,288.06 363.25,288.27C365.59,288.48 375.82,288.68 386.00,288.71zM380.00,276.96C387.98,276.96 396.22,276.55 398.33,276.06C400.44,275.57 402.46,274.87 402.83,274.51C403.20,274.14 403.66,269.60 403.85,264.42C404.19,255.00 404.19,255.00 386.22,255.00C376.34,255.00 366.80,255.29 365.03,255.64C361.82,256.29 361.82,256.29 362.16,265.68C362.41,272.66 362.88,275.32 364.00,276.02C364.82,276.54 372.02,276.97 380.00,276.96zM380.03,249.00C390.02,249.00 395.06,248.58 397.53,247.55C399.44,246.75 401.00,245.63 401.00,245.05C401.00,244.42 398.27,244.00 394.16,244.00C390.39,244.00 382.52,244.29 376.66,244.65C367.19,245.23 366.00,245.51 366.00,247.15C366.00,248.86 367.05,249.00 380.03,249.00zM264.88,245.45C265.36,244.93 266.29,242.82 266.95,240.77C267.61,238.72 267.82,236.51 267.42,235.87C266.91,235.04 266.30,235.24 265.35,236.54C264.61,237.55 264.00,240.19 264.00,242.39C264.00,244.75 264.36,246.01 264.88,245.45zM381.25,238.80C391.04,238.46 393.45,238.06 395.69,236.38C397.16,235.28 398.56,233.83 398.78,233.15C399.10,232.20 396.75,232.08 388.51,232.62C377.82,233.31 377.82,233.31 378.16,230.91C378.36,229.47 379.62,227.98 381.31,227.18C382.85,226.44 390.05,224.60 397.31,223.10C404.56,221.60 411.54,219.80 412.81,219.11C414.08,218.43 414.95,217.33 414.73,216.68C414.52,216.03 412.47,215.36 410.18,215.19C407.89,215.02 400.89,215.59 394.63,216.46C388.37,217.33 380.97,218.71 378.20,219.53C375.01,220.48 372.20,222.16 370.58,224.09C368.52,226.53 368.00,228.22 368.00,232.41C368.00,235.30 368.34,238.01 368.75,238.44C369.16,238.86 374.79,239.02 381.25,238.80z"/>
</svg>