<?xml version="1.0" encoding="UTF-8"?>
<svg xmlns="http://www.w3.org/2000/svg" xmlns:xlink="http://www.w3.org/1999/xlink" width="3200" height="3200" viewBox="0 0 3200 3200">
<path fill-rule="nonzero" fill="rgb(0%, 0%, 0%)" fill-opacity="1" d="M 1173.609375 2461.070312 L 1173.609375 2541.925781 L 1184.449219 2541.925781 L 1184.449219 2461.070312 Z M 1111.878906 2462.566406 L 1111.878906 2541.925781 L 1122.589844 2541.925781 L 1122.589844 2509.285156 C 1134.46875 2509.464844 1143.308594 2507.167969 1149.128906 2502.558594 C 1154.980469 2497.949219 1157.910156 2492.238281 1157.910156 2485.425781 C 1157.910156 2478.660156 1155.148438 2473.15625 1149.628906 2468.917969 C 1144.101562 2464.683594 1136.839844 2462.566406 1127.820312 2462.566406 Z M 1472.121094 2462.566406 L 1498.03125 2505.671875 L 1498.03125 2541.925781 L 1508.871094 2541.925781 L 1508.871094 2505.546875 L 1534.910156 2462.566406 L 1522.878906 2462.566406 L 1503.628906 2494.460938 L 1484.140625 2462.566406 Z M 1729.878906 2462.566406 L 1729.878906 2473.40625 L 1748.761719 2473.40625 L 1748.761719 2541.925781 L 1759.46875 2541.925781 L 1759.46875 2473.40625 L 1778.410156 2473.40625 L 1778.410156 2462.566406 Z M 1974.570312 2462.566406 L 1974.570312 2541.925781 L 1985.410156 2541.925781 L 1985.410156 2503.804688 L 2023.339844 2503.804688 L 2023.339844 2541.925781 L 2034.058594 2541.925781 L 2034.058594 2462.566406 L 2023.339844 2462.566406 L 2023.339844 2493.089844 L 1985.410156 2493.089844 L 1985.410156 2462.566406 Z M 1122.589844 2472.035156 C 1132.640625 2472.035156 1139.140625 2473.371094 1142.089844 2476.085938 C 1145.078125 2478.78125 1146.570312 2481.980469 1146.570312 2485.675781 C 1146.570312 2490.578125 1144.601562 2494.148438 1140.660156 2496.390625 C 1136.75 2498.589844 1130.730469 2499.734375 1122.589844 2499.816406 Z M 1906.851562 2475.585938 L 1906.851562 2490.410156 L 1898.320312 2490.410156 L 1898.320312 2500.441406 L 1906.851562 2500.441406 L 1906.851562 2541.925781 L 1917.691406 2541.925781 L 1917.691406 2500.441406 L 1928.410156 2500.441406 L 1928.410156 2490.535156 L 1917.691406 2490.535156 L 1917.691406 2475.585938 Z M 1224.5 2489.101562 C 1216.980469 2489.101562 1210.609375 2491.78125 1205.378906 2497.136719 C 1200.191406 2502.453125 1197.589844 2508.746094 1197.589844 2516.011719 C 1197.589844 2523.777344 1200.171875 2530.277344 1205.320312 2535.511719 C 1210.46875 2540.742188 1216.859375 2543.359375 1224.5 2543.359375 C 1234.46875 2543.359375 1242.421875 2539.519531 1248.359375 2531.835938 L 1240.449219 2525.855469 C 1236.289062 2530.964844 1231.148438 2533.515625 1225 2533.515625 C 1221.011719 2533.515625 1217.320312 2532.316406 1213.910156 2529.902344 C 1210.550781 2527.453125 1208.390625 2523.59375 1207.429688 2518.320312 L 1251.289062 2518.320312 C 1251.289062 2509.679688 1248.78125 2502.664062 1243.5 2497.261719 C 1238.230469 2491.824219 1231.890625 2489.101562 1224.5 2489.101562 Z M 1287.171875 2489.101562 C 1280.648438 2489.101562 1274.960938 2491.800781 1270.101562 2497.199219 C 1265.28125 2502.558594 1262.871094 2508.828125 1262.871094 2516.011719 C 1262.871094 2523.613281 1265.261719 2530.070312 1270.039062 2535.386719 C 1274.851562 2540.699219 1280.648438 2543.359375 1287.421875 2543.359375 C 1295.230469 2543.359375 1301.769531 2539.476562 1307.039062 2531.710938 L 1307.039062 2541.925781 L 1317.878906 2541.925781 L 1317.878906 2490.535156 L 1307.039062 2490.535156 L 1307.039062 2501 C 1305.050781 2497.472656 1302.238281 2494.601562 1298.628906 2492.40625 C 1295.019531 2490.203125 1291.199219 2489.101562 1287.171875 2489.101562 Z M 1348.960938 2489.101562 C 1344.101562 2489.101562 1340.050781 2490.53125 1336.820312 2493.402344 C 1333.621094 2496.222656 1332.019531 2499.777344 1332.019531 2504.054688 C 1332.019531 2507.5 1333.140625 2510.40625 1335.378906 2512.773438 C 1337.671875 2515.097656 1341.761719 2517.402344 1347.648438 2519.6875 C 1353.550781 2521.972656 1356.5 2524.546875 1356.5 2527.410156 C 1356.5 2529.027344 1355.648438 2530.464844 1353.949219 2531.710938 C 1352.28125 2532.910156 1350.328125 2533.515625 1348.089844 2533.515625 C 1344.851562 2533.515625 1341.738281 2532.070312 1338.75 2529.15625 L 1330.210938 2533.269531 C 1334.859375 2539.996094 1340.820312 2543.359375 1348.089844 2543.359375 C 1352.871094 2543.359375 1357.019531 2541.761719 1360.550781 2538.5625 C 1364.078125 2535.324219 1365.839844 2531.546875 1365.839844 2527.226562 C 1365.839844 2523.527344 1364.621094 2520.375 1362.171875 2517.757812 C 1359.71875 2515.140625 1355.691406 2512.753906 1350.078125 2510.59375 C 1344.519531 2508.390625 1341.738281 2506.128906 1341.738281 2503.804688 C 1341.738281 2500.5625 1343.941406 2498.945312 1348.339844 2498.945312 C 1350.210938 2498.945312 1351.828125 2499.308594 1353.199219 2500 C 1354.570312 2500.660156 1356.191406 2501.664062 1358.058594 2502.988281 L 1365.28125 2496.636719 C 1359.261719 2491.609375 1353.820312 2489.097656 1348.960938 2489.097656 Z M 1401.410156 2489.101562 C 1393.898438 2489.101562 1387.519531 2491.78125 1382.289062 2497.136719 C 1377.101562 2502.453125 1374.5 2508.746094 1374.5 2516.011719 C 1374.5 2523.777344 1377.078125 2530.277344 1382.230469 2535.511719 C 1387.378906 2540.742188 1393.769531 2543.359375 1401.410156 2543.359375 C 1411.378906 2543.359375 1419.328125 2539.519531 1425.269531 2531.835938 L 1417.359375 2525.855469 C 1413.210938 2530.964844 1408.058594 2533.515625 1401.910156 2533.515625 C 1397.921875 2533.515625 1394.230469 2532.316406 1390.820312 2529.902344 C 1387.460938 2527.453125 1385.300781 2523.59375 1384.339844 2518.320312 L 1428.199219 2518.320312 C 1428.199219 2509.679688 1425.691406 2502.664062 1420.410156 2497.261719 C 1415.140625 2491.824219 1408.800781 2489.101562 1401.410156 2489.101562 Z M 1560.761719 2489.101562 C 1553.570312 2489.101562 1547.199219 2491.84375 1541.640625 2497.324219 C 1536.109375 2502.765625 1533.351562 2508.992188 1533.351562 2516.011719 C 1533.351562 2523.363281 1536.128906 2529.757812 1541.699219 2535.199219 C 1547.300781 2540.640625 1553.910156 2543.359375 1561.5 2543.359375 C 1568.609375 2543.359375 1574.859375 2540.617188 1580.261719 2535.136719 C 1585.699219 2529.613281 1588.421875 2523.238281 1588.421875 2516.011719 C 1588.421875 2508.828125 1585.648438 2502.558594 1580.128906 2497.199219 C 1574.609375 2491.800781 1568.148438 2489.101562 1560.761719 2489.101562 Z M 1684.039062 2489.101562 C 1680.339844 2489.101562 1677.328125 2490.046875 1675 2491.96875 C 1672.71875 2493.839844 1670.371094 2496.890625 1667.960938 2501.125 L 1667.960938 2490.535156 L 1657.371094 2490.535156 L 1657.371094 2541.925781 L 1668.210938 2541.925781 L 1668.210938 2513.457031 C 1668.210938 2509.636719 1669.441406 2506.460938 1671.890625 2503.929688 C 1674.378906 2501.355469 1677.449219 2500.066406 1681.109375 2500.066406 C 1681.769531 2500.066406 1683.140625 2500.269531 1685.21875 2500.699219 L 1688.519531 2489.863281 C 1686.570312 2489.367188 1685.070312 2489.105469 1684.039062 2489.105469 Z M 1803.949219 2489.101562 C 1796.429688 2489.101562 1790.058594 2491.78125 1784.820312 2497.136719 C 1779.628906 2502.453125 1777.039062 2508.746094 1777.039062 2516.011719 C 1777.039062 2523.777344 1779.609375 2530.277344 1784.761719 2535.511719 C 1789.910156 2540.742188 1796.308594 2543.359375 1803.949219 2543.359375 C 1813.910156 2543.359375 1821.871094 2539.519531 1827.808594 2531.835938 L 1819.890625 2525.855469 C 1815.738281 2530.964844 1810.589844 2533.515625 1804.449219 2533.515625 C 1800.460938 2533.515625 1796.761719 2532.316406 1793.359375 2529.902344 C 1789.988281 2527.453125 1787.828125 2523.59375 1786.878906 2518.320312 L 1830.730469 2518.320312 C 1830.730469 2509.679688 1828.21875 2502.664062 1822.949219 2497.261719 C 1817.671875 2491.824219 1811.339844 2489.101562 1803.949219 2489.101562 Z M 2074.671875 2489.101562 C 2067.148438 2489.101562 2060.78125 2491.78125 2055.550781 2497.136719 C 2050.359375 2502.453125 2047.761719 2508.746094 2047.761719 2516.011719 C 2047.761719 2523.777344 2050.328125 2530.277344 2055.488281 2535.511719 C 2060.640625 2540.742188 2067.03125 2543.359375 2074.671875 2543.359375 C 2084.640625 2543.359375 2092.589844 2539.519531 2098.53125 2531.835938 L 2090.621094 2525.855469 C 2086.46875 2530.964844 2081.320312 2533.515625 2075.171875 2533.515625 C 2071.179688 2533.515625 2067.488281 2532.316406 2064.078125 2529.902344 C 2060.71875 2527.453125 2058.558594 2523.59375 2057.601562 2518.320312 L 2101.460938 2518.320312 C 2101.628906 2509.679688 2098.941406 2502.664062 2093.671875 2497.261719 C 2088.390625 2491.824219 2082.058594 2489.101562 2074.671875 2489.101562 Z M 2142.011719 2489.101562 C 2138.308594 2489.101562 2135.300781 2490.046875 2132.980469 2491.96875 C 2130.691406 2493.839844 2128.351562 2496.890625 2125.941406 2501.125 L 2125.941406 2490.535156 L 2115.351562 2490.535156 L 2115.351562 2541.925781 L 2126.191406 2541.925781 L 2126.191406 2513.457031 C 2126.191406 2509.636719 2127.410156 2506.460938 2129.859375 2503.929688 C 2132.351562 2501.355469 2135.429688 2500.066406 2139.078125 2500.066406 C 2139.738281 2500.066406 2141.121094 2500.269531 2143.191406 2500.699219 L 2146.5 2489.863281 C 2144.539062 2489.367188 2143.050781 2489.105469 2142.011719 2489.105469 Z M 2181.070312 2489.101562 C 2173.550781 2489.101562 2167.179688 2491.78125 2161.941406 2497.136719 C 2156.75 2502.453125 2154.160156 2508.746094 2154.160156 2516.011719 C 2154.160156 2523.777344 2156.730469 2530.277344 2161.878906 2535.511719 C 2167.03125 2540.742188 2173.421875 2543.359375 2181.070312 2543.359375 C 2191.03125 2543.359375 2198.988281 2539.519531 2204.921875 2531.835938 L 2197.011719 2525.855469 C 2192.859375 2530.964844 2187.710938 2533.515625 2181.558594 2533.515625 C 2177.578125 2533.515625 2173.878906 2532.316406 2170.480469 2529.902344 C 2167.109375 2527.453125 2164.949219 2523.59375 2164 2518.320312 L 2207.851562 2518.320312 C 2208.03125 2509.679688 2205.339844 2502.664062 2200.058594 2497.261719 C 2194.789062 2491.824219 2188.460938 2489.101562 2181.070312 2489.101562 Z M 1598.261719 2490.53125 L 1598.261719 2520.867188 C 1598.261719 2527.550781 1600.308594 2532.972656 1604.429688 2537.125 C 1608.539062 2541.277344 1613.910156 2543.355469 1620.558594 2543.355469 C 1627.078125 2543.355469 1632.441406 2541.277344 1636.628906 2537.125 C 1640.820312 2532.972656 1642.921875 2527.675781 1642.921875 2521.242188 L 1642.921875 2490.53125 L 1632.210938 2490.53125 L 1632.210938 2519.496094 C 1632.210938 2523.648438 1631.179688 2526.929688 1629.148438 2529.335938 C 1627.121094 2531.703125 1624.359375 2532.886719 1620.871094 2532.886719 C 1613.019531 2532.886719 1609.089844 2528.425781 1609.089844 2519.496094 L 1609.089844 2490.53125 Z M 1839.519531 2490.53125 L 1857.640625 2513.703125 L 1835.898438 2541.921875 L 1848.679688 2541.921875 L 1864 2522.300781 L 1879.199219 2541.921875 L 1892.089844 2541.921875 L 1870.480469 2513.703125 L 1888.351562 2490.53125 L 1875.339844 2490.53125 L 1864.121094 2505.171875 L 1852.660156 2490.53125 Z M 1224.5 2499.0625 C 1231.308594 2499.0625 1236.460938 2502.59375 1239.949219 2509.652344 L 1208.550781 2509.652344 C 1211.75 2502.59375 1217.070312 2499.0625 1224.5 2499.0625 Z M 1401.410156 2499.0625 C 1408.21875 2499.0625 1413.371094 2502.59375 1416.859375 2509.652344 L 1385.46875 2509.652344 C 1388.660156 2502.59375 1393.980469 2499.0625 1401.410156 2499.0625 Z M 1803.949219 2499.0625 C 1810.761719 2499.0625 1815.910156 2502.59375 1819.398438 2509.652344 L 1788 2509.652344 C 1791.199219 2502.59375 1796.511719 2499.0625 1803.949219 2499.0625 Z M 2074.671875 2499.0625 C 2081.480469 2499.0625 2086.628906 2502.59375 2090.121094 2509.652344 L 2058.71875 2509.652344 C 2061.921875 2502.59375 2067.238281 2499.0625 2074.671875 2499.0625 Z M 2181.070312 2499.0625 C 2187.878906 2499.0625 2193.03125 2502.59375 2196.519531 2509.652344 L 2165.121094 2509.652344 C 2168.320312 2502.59375 2173.628906 2499.0625 2181.070312 2499.0625 Z M 1291.339844 2499.320312 C 1296.03125 2499.320312 1300.058594 2501.003906 1303.429688 2504.367188 C 1306.789062 2507.691406 1308.46875 2511.695312 1308.46875 2516.390625 C 1308.46875 2521.039062 1306.789062 2525.066406 1303.429688 2528.476562 C 1300.058594 2531.839844 1296.03125 2533.519531 1291.339844 2533.519531 C 1286.609375 2533.519531 1282.578125 2531.816406 1279.261719 2528.414062 C 1275.929688 2525.007812 1274.269531 2520.875 1274.269531 2516.015625 C 1274.269531 2511.53125 1275.980469 2507.628906 1279.378906 2504.304688 C 1282.789062 2500.984375 1286.769531 2499.320312 1291.339844 2499.320312 Z M 1561.128906 2499.816406 C 1565.699219 2499.816406 1569.648438 2501.433594 1572.96875 2504.675781 C 1576.289062 2507.875 1577.949219 2511.652344 1577.949219 2516.015625 C 1577.949219 2520.414062 1576.269531 2524.277344 1572.898438 2527.601562 C 1569.539062 2530.921875 1565.621094 2532.585938 1561.128906 2532.585938 C 1556.519531 2532.585938 1552.488281 2530.96875 1549.050781 2527.726562 C 1545.640625 2524.488281 1543.941406 2520.707031 1543.941406 2516.386719 C 1543.941406 2511.859375 1545.621094 2507.976562 1548.980469 2504.738281 C 1552.390625 2501.460938 1556.441406 2499.816406 1561.128906 2499.816406 "/>
<path fill-rule="nonzero" fill="rgb(0%, 50.193787%, 0%)" fill-opacity="1" d="M 1866.75 656.640625 L 1538.679688 658.929688 C 1528.730469 659 1519.210938 661.128906 1510.53125 664.910156 L 1510.46875 664.910156 C 1484.441406 676.269531 1466 702.5 1466.210938 732.371094 L 1466.558594 783.058594 C 1466.839844 822.878906 1500.191406 855.761719 1540.011719 855.480469 L 1548.71875 855.421875 C 1544.589844 907.671875 1524.941406 942.820312 1490.519531 969.769531 L 1490.519531 969.710938 C 1481.519531 974.96875 1472.921875 980.808594 1464.640625 987.070312 C 1464.21875 987.308594 1463.820312 987.570312 1463.390625 987.820312 L 1463.460938 987.929688 C 1399.410156 1036.921875 1358.441406 1114.5 1359.050781 1201.300781 L 1359.199219 1224.050781 C 1373.710938 1204.96875 1391.871094 1186.730469 1413.21875 1169.730469 C 1418.070312 1165.871094 1423.890625 1161.761719 1430.199219 1157.570312 C 1440.050781 1110.941406 1466.050781 1070.609375 1502.140625 1042.410156 C 1566.851562 1003.378906 1609.089844 939.191406 1615.429688 854.960938 L 1712.210938 854.289062 C 1724.289062 854.421875 1735.5 848.03125 1741.539062 837.558594 C 1747.570312 827.101562 1747.480469 814.191406 1741.308594 803.808594 C 1735.140625 793.421875 1723.851562 787.179688 1711.769531 787.46875 L 1539.53125 788.679688 C 1535.570312 788.679688 1533.421875 786.558594 1533.390625 782.601562 L 1533.019531 731.910156 C 1533.019531 728.941406 1534.199219 726.980469 1536.46875 726.171875 C 1537.21875 725.898438 1538.101562 725.769531 1539.089844 725.769531 L 1867.160156 723.46875 C 1871.121094 723.46875 1873.269531 725.578125 1873.300781 729.539062 L 1873.53125 763.238281 L 1927.738281 689.300781 C 1914.460938 669.589844 1891.910156 656.488281 1866.730469 656.660156 Z M 1927.789062 689.359375 L 1873.53125 763.378906 L 1873.648438 780.25 C 1873.648438 784.210938 1871.558594 786.359375 1867.601562 786.390625 L 1856.601562 786.460938 L 1798.460938 865.78125 C 1808.769531 943.171875 1850.128906 1002.121094 1911.230469 1038.488281 C 1959.460938 1074.410156 1990.839844 1131.5 1991.308594 1196.941406 L 1996.75 1951.601562 L 1996.75 1951.671875 C 1997 1979.171875 1978.960938 2007.570312 1941.910156 2031.28125 C 1904.878906 2054.988281 1850.808594 2071.230469 1792.25 2071.640625 C 1792.238281 2071.640625 1792.238281 2071.640625 1792.171875 2071.640625 L 1637.078125 2072.71875 C 1578.5 2073.128906 1524.210938 2057.660156 1486.808594 2034.460938 C 1450.390625 2011.859375 1432.199219 1984.511719 1431.078125 1957.621094 L 1428.398438 1573.941406 C 1406.808594 1539.140625 1339.761719 1467.691406 1314.519531 1442.769531 C 1271.449219 1400.261719 1156.699219 1316.378906 1103.21875 1288.300781 C 1050.660156 1260.710938 1047.671875 1258.691406 1074.988281 1269.171875 C 1158.398438 1301.179688 1230.980469 1340.839844 1297.621094 1390.859375 L 1343.320312 1425.171875 L 1333.488281 1375.039062 C 1317.398438 1293.039062 1291.429688 1246.601562 1240.300781 1208.371094 C 1176.21875 1160.46875 1087.441406 1135.410156 981.90625 1135.46875 C 931.632812 1135.46875 832.277344 1146.28125 793.828125 1155.878906 L 764.761719 1163.128906 L 790.753906 1182.261719 C 832.433594 1212.941406 850.394531 1234.488281 931.3125 1350.851562 C 977.503906 1417.269531 1003.449219 1446.238281 1037.421875 1469.28125 C 1097.878906 1510.289062 1169.898438 1515.539062 1265.679688 1485.921875 C 1285.089844 1479.921875 1301.289062 1475.269531 1301.691406 1475.601562 C 1302.089844 1475.929688 1314.089844 1490.199219 1328.359375 1507.320312 C 1342.398438 1524.171875 1355.691406 1543.140625 1367.578125 1562.671875 C 1365.578125 1559.390625 1363.558594 1556.121094 1361.480469 1552.878906 L 1364.121094 1930.371094 L 1363.738281 1930.480469 L 1363.929688 1955.878906 C 1364.328125 2012.558594 1401.390625 2060.03125 1451.628906 2091.210938 C 1501.878906 2122.378906 1567.289062 2140 1637.589844 2139.511719 L 1792.648438 2138.429688 L 1792.71875 2138.429688 C 1863.019531 2137.941406 1928.179688 2119.410156 1977.96875 2087.539062 C 2027.738281 2055.691406 2064.101562 2007.730469 2063.609375 1951.078125 L 2063.609375 1951.019531 L 2058.148438 1196.449219 C 2057.519531 1109.738281 2015.539062 1032.828125 1950.921875 984.738281 L 1951.078125 984.449219 C 1950.269531 984.011719 1949.519531 983.539062 1948.71875 983.089844 C 1943.550781 979.320312 1938.300781 975.691406 1932.859375 972.300781 L 1932.410156 973.019531 C 1892.238281 945.820312 1869.148438 909.640625 1863.910156 853.21875 L 1868.101562 853.21875 C 1907.921875 852.949219 1940.78125 819.621094 1940.511719 779.789062 L 1940.160156 729.089844 C 1940.050781 714.480469 1935.46875 700.808594 1927.78125 689.371094 Z M 1856.511719 786.460938 L 1828.078125 786.660156 C 1817.851562 786.730469 1808.210938 791.488281 1801.929688 799.570312 C 1795.648438 807.648438 1793.421875 818.160156 1795.878906 828.101562 C 1795.941406 841.078125 1796.828125 853.578125 1798.441406 865.671875 Z M 1555.71875 1125.109375 C 1545.289062 1124.351562 1458.230469 1171.578125 1431.578125 1192.800781 C 1373.148438 1239.300781 1345.039062 1290.671875 1351.238281 1339.578125 C 1354.179688 1362.75 1369.789062 1409.511719 1374.351562 1408.761719 C 1375.628906 1408.550781 1380.738281 1396.410156 1385.699219 1381.769531 C 1390.648438 1367.128906 1401.21875 1343.179688 1409.179688 1328.539062 C 1424.390625 1300.550781 1458.621094 1249.199219 1447.511719 1271.019531 C 1422.121094 1320.910156 1389.960938 1405.980469 1391.828125 1418.289062 C 1392.890625 1425.308594 1443.699219 1411.960938 1468.628906 1398.109375 C 1498.070312 1381.761719 1513.398438 1366.058594 1525.519531 1339.828125 C 1535.851562 1317.488281 1538.878906 1293.589844 1541.691406 1211.898438 C 1542.320312 1193.589844 1546.230469 1166.871094 1550.398438 1152.519531 C 1554.570312 1138.171875 1557.308594 1125.949219 1556.488281 1125.339844 C 1556.308594 1125.210938 1556.058594 1125.140625 1555.71875 1125.121094 Z M 1368.851562 1564.761719 C 1373.011719 1571.671875 1377 1578.628906 1380.738281 1585.609375 C 1377 1578.640625 1373.011719 1571.671875 1368.851562 1564.761719 Z M 1380.820312 1585.761719 C 1382.371094 1588.648438 1383.851562 1591.53125 1385.308594 1594.429688 C 1383.851562 1591.539062 1382.371094 1588.648438 1380.820312 1585.761719 Z M 1388.570312 1601 C 1389.941406 1603.820312 1391.308594 1606.621094 1392.589844 1609.429688 C 1391.308594 1606.628906 1389.941406 1603.820312 1388.570312 1601 Z M 1397.480469 1620.550781 C 1398.308594 1622.539062 1399.109375 1624.511719 1399.898438 1626.480469 C 1399.109375 1624.511719 1398.308594 1622.539062 1397.480469 1620.550781 Z M 1403.839844 1636.890625 C 1404.179688 1637.851562 1404.609375 1638.851562 1404.941406 1639.800781 L 1404.941406 1639.859375 C 1404.601562 1638.890625 1404.199219 1637.890625 1403.851562 1636.910156 "/>
<path fill-rule="nonzero" fill="rgb(0%, 0%, 0%)" fill-opacity="1" d="M 1082.371094 2239.835938 C 1071.320312 2239.835938 1060.871094 2241.816406 1051 2245.773438 C 1041.140625 2249.734375 1032.320312 2255.5 1024.539062 2263.070312 C 1016.761719 2270.714844 1010.851562 2279.359375 1006.820312 2289.015625 C 1002.800781 2298.671875 1000.78125 2308.953125 1000.78125 2319.859375 C 1000.78125 2330.835938 1002.800781 2341.117188 1006.820312 2350.703125 C 1010.851562 2360.289062 1016.761719 2368.867188 1024.539062 2376.4375 C 1032.179688 2383.941406 1040.96875 2389.742188 1050.898438 2393.839844 C 1060.898438 2397.871094 1071.390625 2399.882812 1082.371094 2399.882812 C 1093.199219 2399.882812 1103.558594 2397.871094 1113.421875 2393.839844 C 1123.28125 2389.8125 1132.140625 2384.011719 1139.988281 2376.4375 C 1147.769531 2368.867188 1153.671875 2360.253906 1157.699219 2350.597656 C 1161.800781 2340.941406 1163.851562 2330.695312 1163.851562 2319.859375 C 1163.851562 2309.09375 1161.800781 2298.882812 1157.699219 2289.226562 C 1153.671875 2279.5 1147.769531 2270.78125 1139.988281 2263.070312 C 1132.210938 2255.5 1123.390625 2249.734375 1113.519531 2245.773438 C 1103.730469 2241.816406 1093.339844 2239.835938 1082.371094 2239.835938 Z M 884.496094 2243.273438 L 884.496094 2395.820312 L 923.152344 2395.820312 C 937.742188 2395.820312 948.128906 2394.949219 954.308594 2393.214844 C 960.492188 2391.476562 965.664062 2388.492188 969.835938 2384.253906 C 973.792969 2380.363281 976.851562 2375.640625 979.003906 2370.082031 C 981.15625 2364.527344 982.234375 2358.65625 982.234375 2352.472656 C 982.234375 2342.261719 979.664062 2333.820312 974.523438 2327.152344 C 969.453125 2320.414062 962.472656 2316.351562 953.578125 2314.964844 C 960.734375 2312.808594 966.1875 2309.023438 969.9375 2303.605469 C 973.691406 2298.117188 975.566406 2291.308594 975.566406 2283.183594 C 975.566406 2276.375 974.246094 2270.15625 971.605469 2264.53125 C 969.035156 2258.902344 965.390625 2254.355469 960.664062 2250.882812 C 956.984375 2248.171875 952.503906 2246.226562 947.222656 2245.046875 C 942.015625 2243.863281 933.921875 2243.273438 922.945312 2243.273438 Z M 1168.960938 2243.273438 L 1168.960938 2264.320312 L 1209.488281 2264.320312 L 1209.488281 2395.820312 L 1234.289062 2395.820312 L 1234.289062 2264.320312 L 1274.609375 2264.320312 L 1274.609375 2243.273438 Z M 1277.738281 2243.273438 L 1277.738281 2264.320312 L 1318.269531 2264.320312 L 1318.269531 2395.820312 L 1343.070312 2395.820312 L 1343.070312 2264.320312 L 1383.398438 2264.320312 L 1383.398438 2243.273438 Z M 1402.570312 2243.273438 L 1402.570312 2395.820312 L 1482.800781 2395.820312 L 1482.800781 2373.625 L 1427.371094 2373.625 L 1427.371094 2243.273438 Z M 1503.011719 2243.273438 L 1503.011719 2395.820312 L 1588.140625 2395.820312 L 1588.140625 2373.625 L 1527.808594 2373.625 L 1527.808594 2324.339844 L 1588.140625 2324.339844 L 1588.140625 2302.5625 L 1527.808594 2302.5625 L 1527.808594 2264.320312 L 1588.140625 2264.320312 L 1588.140625 2243.273438 Z M 1082.371094 2262.65625 C 1089.871094 2262.65625 1096.988281 2264.113281 1103.730469 2267.03125 C 1110.539062 2269.878906 1116.511719 2273.976562 1121.648438 2279.328125 C 1126.929688 2284.746094 1130.960938 2290.925781 1133.738281 2297.875 C 1136.589844 2304.820312 1138.011719 2312.148438 1138.011719 2319.859375 C 1138.011719 2327.5 1136.589844 2334.796875 1133.738281 2341.742188 C 1130.960938 2348.617188 1126.929688 2354.765625 1121.648438 2360.183594 C 1116.300781 2365.601562 1110.261719 2369.734375 1103.519531 2372.585938 C 1096.851562 2375.433594 1089.800781 2376.855469 1082.371094 2376.855469 C 1074.800781 2376.855469 1067.640625 2375.433594 1060.898438 2372.585938 C 1054.171875 2369.734375 1048.160156 2365.601562 1042.878906 2360.183594 C 1037.601562 2354.765625 1033.570312 2348.617188 1030.789062 2341.742188 C 1028.011719 2334.863281 1026.621094 2327.570312 1026.621094 2319.859375 C 1026.621094 2312.078125 1028.011719 2304.71875 1030.789062 2297.769531 C 1033.570312 2290.824219 1037.601562 2284.675781 1042.878906 2279.328125 C 1048.160156 2273.910156 1054.171875 2269.773438 1060.898438 2266.925781 C 1067.710938 2264.078125 1074.871094 2262.65625 1082.371094 2262.65625 Z M 908.773438 2263.90625 L 918.257812 2263.90625 C 930.828125 2263.90625 939.375 2265.609375 943.890625 2269.011719 C 948.40625 2272.347656 950.664062 2278.179688 950.664062 2286.515625 C 950.664062 2294.15625 948.195312 2299.609375 943.265625 2302.875 C 938.402344 2306.070312 930.066406 2307.667969 918.257812 2307.667969 L 908.773438 2307.667969 Z M 908.773438 2326.425781 L 924.820312 2326.425781 C 929.824219 2326.425781 933.816406 2326.699219 936.804688 2327.257812 C 939.859375 2327.816406 942.570312 2328.683594 944.929688 2329.863281 C 948.683594 2331.878906 951.566406 2334.691406 953.578125 2338.304688 C 955.59375 2341.914062 956.601562 2346.152344 956.601562 2351.015625 C 956.601562 2355.113281 955.769531 2358.863281 954.101562 2362.269531 C 952.433594 2365.671875 950.070312 2368.382812 947.015625 2370.394531 C 944.515625 2372.132812 941.109375 2373.347656 936.804688 2374.042969 C 932.496094 2374.738281 926.003906 2375.085938 917.320312 2375.085938 L 908.773438 2375.085938 L 908.773438 2326.425781 "/>
<path fill-rule="nonzero" fill="rgb(0%, 50.193787%, 0%)" fill-opacity="1" d="M 1661.988281 2241.925781 L 1661.988281 2400.515625 L 1684.808594 2400.515625 L 1684.808594 2294.453125 C 1687.03125 2297.578125 1689.359375 2300.5625 1691.789062 2303.410156 C 1694.289062 2306.261719 1696.859375 2308.960938 1699.5 2311.527344 L 1798.378906 2406.464844 L 1798.378906 2247.980469 L 1775.460938 2247.980469 L 1775.460938 2353.738281 C 1772.46875 2349.988281 1769.621094 2346.609375 1766.910156 2343.621094 C 1764.210938 2340.636719 1761.53125 2337.820312 1758.890625 2335.183594 Z M 1886.429688 2241.925781 L 1812.550781 2400.515625 L 1838.601562 2400.515625 L 1856.320312 2361.230469 L 1916.75 2361.230469 L 1934.050781 2400.515625 L 1960.199219 2400.515625 Z M 1946.859375 2247.980469 L 1946.859375 2269.027344 L 1987.398438 2269.027344 L 1987.398438 2400.515625 L 2012.199219 2400.515625 L 2012.199219 2269.027344 L 2052.519531 2269.027344 L 2052.519531 2247.980469 Z M 2071.070312 2247.980469 L 2071.070312 2342.890625 C 2071.070312 2363.59375 2076.238281 2379.050781 2086.589844 2389.261719 C 2096.941406 2399.472656 2112.609375 2404.578125 2133.589844 2404.578125 C 2154.570312 2404.578125 2170.261719 2399.472656 2180.679688 2389.261719 C 2191.101562 2378.980469 2196.308594 2363.523438 2196.308594 2342.890625 L 2196.308594 2247.980469 L 2171.519531 2247.980469 L 2171.519531 2340.601562 C 2171.519531 2354.355469 2168.320312 2364.703125 2161.929688 2371.652344 C 2155.609375 2378.527344 2146.160156 2381.96875 2133.589844 2381.96875 C 2120.941406 2381.96875 2111.429688 2378.527344 2105.039062 2371.652344 C 2098.71875 2364.703125 2095.558594 2354.355469 2095.558594 2340.601562 L 2095.558594 2247.980469 Z M 2230.488281 2247.980469 L 2230.488281 2400.515625 L 2253.730469 2400.515625 L 2253.730469 2332.265625 L 2256.539062 2332.265625 L 2307.28125 2400.515625 L 2335.308594 2400.515625 L 2282.800781 2331.128906 C 2294.328125 2329.738281 2303.050781 2325.605469 2308.949219 2318.730469 C 2314.859375 2311.78125 2317.808594 2302.1875 2317.808594 2289.960938 C 2317.808594 2283.015625 2316.519531 2276.632812 2313.949219 2270.796875 C 2311.378906 2264.964844 2307.738281 2260.195312 2303.011719 2256.511719 C 2299.050781 2253.457031 2294.261719 2251.269531 2288.628906 2249.949219 C 2283.078125 2248.628906 2275.230469 2247.980469 2265.078125 2247.980469 Z M 2350.109375 2247.980469 L 2350.109375 2400.515625 L 2435.238281 2400.515625 L 2435.238281 2378.320312 L 2374.910156 2378.320312 L 2374.910156 2329.046875 L 2435.238281 2329.046875 L 2435.238281 2307.257812 L 2374.910156 2307.257812 L 2374.910156 2269.027344 L 2435.238281 2269.027344 L 2435.238281 2247.980469 Z M 2255.289062 2269.226562 L 2259.769531 2269.226562 C 2272.269531 2269.226562 2280.820312 2270.972656 2285.398438 2274.445312 C 2290.058594 2277.847656 2292.378906 2283.742188 2292.378906 2292.148438 C 2292.378906 2299.929688 2290.230469 2305.355469 2285.921875 2308.414062 C 2281.621094 2311.46875 2272.898438 2312.996094 2259.769531 2312.996094 L 2255.289062 2312.996094 Z M 1886.640625 2288.5 C 1887.609375 2292.042969 1888.578125 2295.273438 1889.558594 2298.191406 C 1890.53125 2301.039062 1891.46875 2303.585938 1892.371094 2305.808594 L 1908 2340.601562 L 1865.488281 2340.601562 L 1881.121094 2305.808594 C 1882.089844 2303.378906 1883.03125 2300.726562 1883.929688 2297.878906 C 1884.898438 2294.960938 1885.808594 2291.835938 1886.640625 2288.5 "/>
</svg>