<?xml version="1.0" encoding="UTF-8" standalone="no"?>
<!-- Created with Inkscape (http://www.inkscape.org/) -->

<svg
   version="1.1"
   id="svg2"
   width="2666.6667"
   height="2666.6667"
   viewBox="0 0 2666.6667 2666.6667"
   sodipodi:docname="vecteezy_snails-logo-vector-on-white-background_6559205.eps"
   xmlns:inkscape="http://www.inkscape.org/namespaces/inkscape"
   xmlns:sodipodi="http://sodipodi.sourceforge.net/DTD/sodipodi-0.dtd"
   xmlns="http://www.w3.org/2000/svg"
   xmlns:svg="http://www.w3.org/2000/svg">
  <defs
     id="defs6" />
  <sodipodi:namedview
     id="namedview4"
     pagecolor="#ffffff"
     bordercolor="#000000"
     borderopacity="0.25"
     inkscape:showpageshadow="2"
     inkscape:pageopacity="0.0"
     inkscape:pagecheckerboard="0"
     inkscape:deskcolor="#d1d1d1" />
  <g
     id="g8"
     inkscape:groupmode="layer"
     inkscape:label="ink_ext_XXXXXX"
     transform="matrix(1.3333333,0,0,-1.3333333,0,2666.6667)">
    <g
       id="g10"
       transform="scale(0.1)">
      <path
         d="M 20000,0 H 0 V 20000 H 20000 V 0"
         style="fill:#ffffff;fill-opacity:1;fill-rule:nonzero;stroke:none"
         id="path12" />
      <path
         d="m 14895.1,10815.6 c -306,53.8 -565.4,40.2 -791.7,-19.4 -115.3,608 107.2,1204.9 238.8,1488.1 8.9,-1.7 18.1,-2.7 27.5,-2.7 79.2,0 143.3,64.2 143.3,143.3 0,79.2 -64.1,143.4 -143.3,143.4 -79.2,0 -143.3,-64.2 -143.3,-143.4 0,-42.1 18.3,-80 47.3,-106.2 -238.3,-397.3 -369.6,-860.6 -372.1,-1323.3 -219.9,751.9 65.3,1524.5 228.2,1875 10.1,-2 20.5,-3 31.2,-3 90.1,0 163.2,73 163.2,163.1 0,90.1 -73.1,163.1 -163.2,163.1 -90.1,0 -163.1,-73 -163.1,-163.1 0,-48 20.9,-91.1 53.9,-120.9 -403,-672 -537.3,-1510 -320.5,-2264.8 -777.7,-437.2 -1131.9,-1436.2 -1942.3,-1597.3 0,0 360.2,292.3 634,805.5 -503.5,575.8 -707.8,2212.8 -2757.18,3080.5 -1186.55,502.4 -2645.18,334.4 -3659.45,-460.2 -1014.28,-794.7 -1515.4,-2216.5 -1154.88,-3453.6 186.1,-638.6 605.9,-1199.3 1145.66,-1585.9 -104.74,-37.2 -204.86,-85.8 -297.01,-146.8 -194.84,-129 -274.16,-304 100.82,-339.7 585.39,-55.6 1212.07,-69.4 1805.43,-64 43.45,-0.7 86.97,-0.4 130.56,1.2 750.05,27 1499.04,387.1 1923.13,1006.3 424.02,619.2 476.82,1494.9 63.55,2121.4 -413.27,626.5 -1298.62,918.7 -1975.96,595.5 -578.07,-275.9 -895.97,-1002.3 -730.32,-1605.5 99.37,409 500.15,676.5 920.92,603.6 432.82,-74.9 724.65,-481.9 659.78,-914.1 -37,-289.9 -214.26,-562.1 -457.35,-730.4 -302.11,-209.2 -689.71,-271 -1054.27,-224.7 -982.48,124.6 -1775.7,1052.6 -1816.32,2042.2 -40.62,989.5 624.34,1948.4 1539.36,2327.3 915.06,378.8 2018.99,194.8 2812.06,-398.3 1780.67,-1331.8 1491.17,-3965.2 267.71,-4824.9 660.76,-96.1 2436.66,-329.8 3483.36,553.8 556.8,470 1110.7,1671.3 1481.7,2344.9 193.7,351.7 795.3,901.5 40.8,1034"
         style="fill:#393536;fill-opacity:1;fill-rule:nonzero;stroke:none"
         id="path14" />
    </g>
  </g>
</svg>
